HIERARCHY
ROOT Hips
{
	OFFSET 0.000000 0.000002 32.900002
	CHANNELS 6 Xposition Yposition Zposition Xrotation Yrotation Zrotation
	JOINT RightUpLeg
	{
		OFFSET -4.000000 0.000000 0.000000
		CHANNELS 6 Xposition Yposition Zposition Xrotation Yrotation Zrotation
		JOINT RightLeg
		{
			OFFSET 0.000000 -0.000001 -14.600000
			CHANNELS 6 Xposition Yposition Zposition Xrotation Yrotation Zrotation
			JOINT RightFoot
			{
				OFFSET 0.000000 -0.000001 -14.600000
				CHANNELS 6 Xposition Yposition Zposition Xrotation Yrotation Zrotation
				End Site
				{
					OFFSET 0.000000 -5.040000 -3.700000
				}
			}
		}
	}
	JOINT LeftUpLeg
	{
		OFFSET 4.000000 0.000000 0.000000
		CHANNELS 6 Xposition Yposition Zposition Xrotation Yrotation Zrotation
		JOINT LeftLeg
		{
			OFFSET 0.000000 -0.000001 -14.600000
			CHANNELS 6 Xposition Yposition Zposition Xrotation Yrotation Zrotation
			JOINT LeftFoot
			{
				OFFSET 0.000000 -0.000001 -14.600000
				CHANNELS 6 Xposition Yposition Zposition Xrotation Yrotation Zrotation
				End Site
				{
					OFFSET 0.000000 -5.040000 -3.700000
				}
			}
		}
	}
	JOINT Spine
	{
		OFFSET 0.000000 0.000000 2.534000
		CHANNELS 6 Xposition Yposition Zposition Xrotation Yrotation Zrotation
		JOINT Spine1
		{
			OFFSET 0.000000 0.000000 5.611000
			CHANNELS 6 Xposition Yposition Zposition Xrotation Yrotation Zrotation
			JOINT Spine2
			{
				OFFSET 0.000000 0.000000 3.981998
				CHANNELS 6 Xposition Yposition Zposition Xrotation Yrotation Zrotation
				JOINT Neck
				{
					OFFSET 0.000000 0.000000 5.973000
					CHANNELS 6 Xposition Yposition Zposition Xrotation Yrotation Zrotation
					JOINT Neck1
					{
						OFFSET 0.000000 0.000000 3.049999
						CHANNELS 6 Xposition Yposition Zposition Xrotation Yrotation Zrotation
						JOINT Head
						{
							OFFSET 0.000000 0.000000 3.049999
							CHANNELS 6 Xposition Yposition Zposition Xrotation Yrotation Zrotation
							End Site
							{
								OFFSET 0.000000 0.000001 6.900002
							}
						}
					}
				}
				JOINT RightShoulder
				{
					OFFSET -0.905000 0.000000 4.163002
					CHANNELS 6 Xposition Yposition Zposition Xrotation Yrotation Zrotation
					JOINT RightArm
					{
						OFFSET -5.195002 0.000000 0.000000
						CHANNELS 6 Xposition Yposition Zposition Xrotation Yrotation Zrotation
						JOINT RightForeArm
						{
							OFFSET -10.899999 0.000000 0.000000
							CHANNELS 6 Xposition Yposition Zposition Xrotation Yrotation Zrotation
							JOINT RightHand
							{
								OFFSET -8.200001 0.000000 0.000000
								CHANNELS 6 Xposition Yposition Zposition Xrotation Yrotation Zrotation
								JOINT RightHandThumb1
								{
									OFFSET -0.632000 -0.821000 -0.158001
									CHANNELS 6 Xposition Yposition Zposition Xrotation Yrotation Zrotation
									JOINT RightHandThumb2
									{
										OFFSET -1.263000 0.000000 0.000000
										CHANNELS 6 Xposition Yposition Zposition Xrotation Yrotation Zrotation
										JOINT RightHandThumb3
										{
											OFFSET -0.877001 0.000000 0.000000
											CHANNELS 6 Xposition Yposition Zposition Xrotation Yrotation Zrotation
											End Site
											{
												OFFSET -0.827000 0.000000 0.000000
											}
										}
									}
								}
								JOINT RightInHandIndex
								{
									OFFSET -1.105000 -0.678000 0.174000
									CHANNELS 6 Xposition Yposition Zposition Xrotation Yrotation Zrotation
									JOINT RightHandIndex1
									{
										OFFSET -1.789000 -0.343000 -0.030998
										CHANNELS 6 Xposition Yposition Zposition Xrotation Yrotation Zrotation
										JOINT RightHandIndex2
										{
											OFFSET -1.240999 0.000000 0.000000
											CHANNELS 6 Xposition Yposition Zposition Xrotation Yrotation Zrotation
											JOINT RightHandIndex3
											{
												OFFSET -0.704000 0.000000 0.000000
												CHANNELS 6 Xposition Yposition Zposition Xrotation Yrotation Zrotation
												End Site
												{
													OFFSET -0.618999 0.000000 0.000000
												}
											}
										}
									}
								}
								JOINT RightInHandMiddle
								{
									OFFSET -1.160000 -0.260000 0.176998
									CHANNELS 6 Xposition Yposition Zposition Xrotation Yrotation Zrotation
									JOINT RightHandMiddle1
									{
										OFFSET -1.774000 -0.108000 -0.028999
										CHANNELS 6 Xposition Yposition Zposition Xrotation Yrotation Zrotation
										JOINT RightHandMiddle2
										{
											OFFSET -1.354000 0.000000 0.000000
											CHANNELS 6 Xposition Yposition Zposition Xrotation Yrotation Zrotation
											JOINT RightHandMiddle3
											{
												OFFSET -0.849001 0.000000 0.000000
												CHANNELS 6 Xposition Yposition Zposition Xrotation Yrotation Zrotation
												End Site
												{
													OFFSET -0.677000 0.000000 0.000000
												}
											}
										}
									}
								}
								JOINT RightInHandRing
								{
									OFFSET -1.153999 0.044000 0.183998
									CHANNELS 6 Xposition Yposition Zposition Xrotation Yrotation Zrotation
									JOINT RightHandRing1
									{
										OFFSET -1.589001 0.164000 -0.007999
										CHANNELS 6 Xposition Yposition Zposition Xrotation Yrotation Zrotation
										JOINT RightHandRing2
										{
											OFFSET -1.180000 0.000000 0.000000
											CHANNELS 6 Xposition Yposition Zposition Xrotation Yrotation Zrotation
											JOINT RightHandRing3
											{
												OFFSET -0.819000 0.000000 0.000000
												CHANNELS 6 Xposition Yposition Zposition Xrotation Yrotation Zrotation
												End Site
												{
													OFFSET -0.636999 0.000000 0.000000
												}
											}
										}
									}
								}
								JOINT RightInHandPinky
								{
									OFFSET -1.084000 0.412000 0.160999
									CHANNELS 6 Xposition Yposition Zposition Xrotation Yrotation Zrotation
									JOINT RightHandPinky1
									{
										OFFSET -1.420000 0.374000 -0.007999
										CHANNELS 6 Xposition Yposition Zposition Xrotation Yrotation Zrotation
										JOINT RightHandPinky2
										{
											OFFSET -0.945000 0.000000 0.000000
											CHANNELS 6 Xposition Yposition Zposition Xrotation Yrotation Zrotation
											JOINT RightHandPinky3
											{
												OFFSET -0.597000 0.000000 0.000000
												CHANNELS 6 Xposition Yposition Zposition Xrotation Yrotation Zrotation
												End Site
												{
													OFFSET -0.563999 0.000000 0.000000
												}
											}
										}
									}
								}
							}
						}
					}
				}
				JOINT LeftShoulder
				{
					OFFSET 0.905000 0.000000 4.163002
					CHANNELS 6 Xposition Yposition Zposition Xrotation Yrotation Zrotation
					JOINT LeftArm
					{
						OFFSET 5.195002 0.000000 0.000000
						CHANNELS 6 Xposition Yposition Zposition Xrotation Yrotation Zrotation
						JOINT LeftForeArm
						{
							OFFSET 10.899999 0.000000 0.000000
							CHANNELS 6 Xposition Yposition Zposition Xrotation Yrotation Zrotation
							JOINT LeftHand
							{
								OFFSET 8.200001 0.000000 0.000000
								CHANNELS 6 Xposition Yposition Zposition Xrotation Yrotation Zrotation
								JOINT LeftHandThumb1
								{
									OFFSET 0.632000 -0.821000 -0.158001
									CHANNELS 6 Xposition Yposition Zposition Xrotation Yrotation Zrotation
									JOINT LeftHandThumb2
									{
										OFFSET 1.263000 0.000000 0.000000
										CHANNELS 6 Xposition Yposition Zposition Xrotation Yrotation Zrotation
										JOINT LeftHandThumb3
										{
											OFFSET 0.877001 0.000000 0.000000
											CHANNELS 6 Xposition Yposition Zposition Xrotation Yrotation Zrotation
											End Site
											{
												OFFSET 0.827000 0.000000 0.000000
											}
										}
									}
								}
								JOINT LeftInHandIndex
								{
									OFFSET 1.105000 -0.678000 0.174000
									CHANNELS 6 Xposition Yposition Zposition Xrotation Yrotation Zrotation
									JOINT LeftHandIndex1
									{
										OFFSET 1.789000 -0.343000 -0.030998
										CHANNELS 6 Xposition Yposition Zposition Xrotation Yrotation Zrotation
										JOINT LeftHandIndex2
										{
											OFFSET 1.240999 0.000000 0.000000
											CHANNELS 6 Xposition Yposition Zposition Xrotation Yrotation Zrotation
											JOINT LeftHandIndex3
											{
												OFFSET 0.704000 0.000000 0.000000
												CHANNELS 6 Xposition Yposition Zposition Xrotation Yrotation Zrotation
												End Site
												{
													OFFSET 0.618999 0.000000 0.000000
												}
											}
										}
									}
								}
								JOINT LeftInHandMiddle
								{
									OFFSET 1.160000 -0.260000 0.176998
									CHANNELS 6 Xposition Yposition Zposition Xrotation Yrotation Zrotation
									JOINT LeftHandMiddle1
									{
										OFFSET 1.774000 -0.108000 -0.028999
										CHANNELS 6 Xposition Yposition Zposition Xrotation Yrotation Zrotation
										JOINT LeftHandMiddle2
										{
											OFFSET 1.354000 0.000000 0.000000
											CHANNELS 6 Xposition Yposition Zposition Xrotation Yrotation Zrotation
											JOINT LeftHandMiddle3
											{
												OFFSET 0.849001 0.000000 0.000000
												CHANNELS 6 Xposition Yposition Zposition Xrotation Yrotation Zrotation
												End Site
												{
													OFFSET 0.677000 0.000000 0.000000
												}
											}
										}
									}
								}
								JOINT LeftInHandRing
								{
									OFFSET 1.153999 0.044000 0.183998
									CHANNELS 6 Xposition Yposition Zposition Xrotation Yrotation Zrotation
									JOINT LeftHandRing1
									{
										OFFSET 1.589001 0.164000 -0.007999
										CHANNELS 6 Xposition Yposition Zposition Xrotation Yrotation Zrotation
										JOINT LeftHandRing2
										{
											OFFSET 1.180000 0.000000 0.000000
											CHANNELS 6 Xposition Yposition Zposition Xrotation Yrotation Zrotation
											JOINT LeftHandRing3
											{
												OFFSET 0.819000 0.000000 0.000000
												CHANNELS 6 Xposition Yposition Zposition Xrotation Yrotation Zrotation
												End Site
												{
													OFFSET 0.636999 0.000000 0.000000
												}
											}
										}
									}
								}
								JOINT LeftInHandPinky
								{
									OFFSET 1.084000 0.412000 0.160999
									CHANNELS 6 Xposition Yposition Zposition Xrotation Yrotation Zrotation
									JOINT LeftHandPinky1
									{
										OFFSET 1.420000 0.374000 -0.007999
										CHANNELS 6 Xposition Yposition Zposition Xrotation Yrotation Zrotation
										JOINT LeftHandPinky2
										{
											OFFSET 0.945000 0.000000 0.000000
											CHANNELS 6 Xposition Yposition Zposition Xrotation Yrotation Zrotation
											JOINT LeftHandPinky3
											{
												OFFSET 0.597000 0.000000 0.000000
												CHANNELS 6 Xposition Yposition Zposition Xrotation Yrotation Zrotation
												End Site
												{
													OFFSET 0.563999 0.000000 0.000000
												}
											}
										}
									}
								}
							}
						}
					}
				}
			}
		}
	}
}
MOTION
Frames: 4
Frame Time: 0.041667
-0.000000 0.000002 32.900002 -1.009332 1.572145 0.013981 -4.000000 0.000000 -0.000003 -2.044463 -0.385622 0.182295 0.000001 -0.000001 -14.599996 1.261521 -0.025108 -0.005263 0.000000 -0.000001 -14.600000 1.788166 -1.171407 -4.092027 4.000000 0.000000 -0.000005 -6.415699 -2.745394 -0.574700 0.000000 -0.000001 -14.600002 10.019587 0.042885 0.036384 -0.000000 -0.000001 -14.599998 -2.606779 1.183289 0.598338 -0.000000 -0.000000 2.534000 1.055029 -1.572057 0.015019 -0.000000 0.000000 5.610996 0.000000 -0.000000 -0.000027 -0.000000 0.000000 3.981998 -0.000007 0.000000 0.000000 -0.000000 0.000000 5.972996 -0.398063 -0.000019 -0.000013 -0.000000 -0.000000 3.049999 -0.398057 -0.000019 -0.000013 0.000000 0.000000 3.049999 -5.065657 -0.000046 -0.000010 -0.905000 0.000000 4.163000 0.000114 -3.696109 0.002945 -5.194999 0.000000 0.000004 36.928944 -73.350829 29.923595 -10.899998 0.000001 -0.000000 -13.242667 -0.582408 8.620922 -8.199997 0.000000 -0.000004 17.918325 8.425720 3.145589 -0.632002 -0.820999 -0.158001 0.000013 0.000034 -0.000014 -1.263004 -0.000000 -0.000001 0.137514 0.089562 -2.511053 -0.877001 -0.000000 0.000001 0.000014 0.000000 0.000001 -1.104999 -0.677999 0.174003 -0.000001 -0.000004 0.000001 -1.788997 -0.343000 -0.030996 0.000004 0.000019 -0.000018 -1.240999 -0.000000 0.000005 0.000001 0.000022 -0.000005 -0.704001 -0.000000 -0.000000 0.000000 0.000015 -0.000004 -1.159996 -0.259999 0.176993 -0.000001 -0.000000 0.000001 -1.773996 -0.108000 -0.028999 0.000003 0.000021 -0.000009 -1.353997 -0.000000 -0.000002 -0.000007 -0.007500 0.000000 -0.848990 -0.000000 -0.000004 0.000001 0.000008 -0.000006 -1.154002 0.044001 0.183994 0.000001 -0.000001 0.000000 -1.589002 0.164000 -0.007995 0.000006 0.000011 -0.000006 -1.180006 0.000001 0.000004 -0.000003 0.000000 -0.000010 -0.819004 -0.000000 -0.000006 0.000006 -0.000005 0.000004 -1.083999 0.412000 0.160999 0.000000 -0.000002 0.000002 -1.420000 0.374001 -0.007999 -0.000002 0.000036 -0.000011 -0.944998 -0.000000 0.000004 -0.000001 -0.000001 -0.000008 -0.596995 -0.000001 0.000002 -0.000009 -0.000003 0.000005 0.905000 0.000000 4.162994 0.000048 2.482056 -0.001979 5.195001 -0.000000 0.000003 52.697242 76.823816 -45.132203 10.900000 -0.000001 0.000001 -13.754819 0.709672 -10.549457 8.200000 0.000003 -0.000002 23.644196 -9.139802 -3.025790 0.631999 -0.821000 -0.158006 0.000023 0.000010 0.000006 1.262998 0.000000 0.000001 0.133455 -0.087359 2.509565 0.876997 0.000001 0.000000 0.000000 0.000002 -0.000000 1.105000 -0.678000 0.173996 -0.000001 -0.000001 -0.000004 1.788996 -0.342999 -0.030998 0.000003 0.000023 0.000008 1.241003 -0.000000 -0.000001 0.000006 -0.000024 -0.000007 0.703996 -0.000000 0.000003 -0.000007 -0.000007 -0.000001 1.159998 -0.260000 0.176992 -0.000001 0.000000 -0.000002 1.773998 -0.108000 -0.029007 -0.000000 -0.000009 -0.000005 1.353996 -0.000000 0.000001 0.000001 0.004979 0.000002 0.848994 -0.000001 0.000004 0.000014 -0.000001 0.000006 1.154000 0.044000 0.183992 -0.000003 -0.000001 0.000000 1.589001 0.163999 -0.007995 -0.000001 0.000002 -0.000002 1.180002 -0.000000 0.000004 0.000004 0.000201 0.000001 0.819002 -0.000001 0.000007 0.000007 0.000046 -0.000003 1.083999 0.411999 0.160996 -0.000003 -0.000003 -0.000001 1.419997 0.374000 -0.007999 -0.000001 0.000006 0.000002 0.944999 -0.000000 0.000004 0.000003 -0.000023 0.000005 0.596998 -0.000000 0.000003 -0.000005 0.000000 0.000002 
0.000000 0.000002 32.900002 -1.022989 1.581732 -0.592091 -4.000000 0.000000 -0.000002 -3.656697 -0.322857 -0.346243 -0.000001 -0.000001 -14.600002 4.684717 -0.048668 -0.064315 -0.000001 -0.000001 -14.599999 0.037519 -1.151201 -2.956304 4.000000 -0.000000 0.000012 -7.251398 -2.621513 -1.424692 -0.000000 -0.000002 -14.599999 11.968171 0.055603 0.079082 0.000000 -0.000001 -14.599998 -3.676888 1.207403 1.893093 -0.000000 0.000000 2.534008 0.655125 -1.225840 -0.824823 -0.000000 0.000000 5.611000 0.548722 -0.056796 0.001864 -0.000000 -0.000000 3.981998 -0.092766 -0.601187 0.011387 -0.000000 0.000000 5.973003 -0.398289 -0.000019 -0.000012 -0.000000 0.000000 3.050003 -0.398268 -0.000019 -0.000013 0.000000 0.000000 3.049999 -5.069130 0.264055 0.834266 -0.905000 -0.000000 4.162996 0.000106 -3.696109 0.002949 -5.195001 -0.000000 -0.000005 27.736896 -69.289175 20.404283 -10.900005 -0.000001 -0.000003 -11.885736 -1.112584 16.974470 -8.200005 0.000002 -0.000002 17.852475 6.611699 2.364765 -0.632004 -0.821000 -0.158002 0.000022 0.000037 0.000006 -1.263000 0.000001 0.000001 0.137509 0.089520 -2.511043 -0.877003 -0.000000 -0.000002 0.000002 0.000013 -0.000007 -1.105002 -0.677999 0.174005 -0.000000 -0.000000 -0.000002 -1.789000 -0.342999 -0.031001 0.000011 0.000011 -0.000015 -1.240999 -0.000000 0.000002 -0.000007 0.000010 -0.000003 -0.704007 -0.000002 -0.000000 0.000006 0.000004 0.000004 -1.159998 -0.259999 0.176998 -0.000001 -0.000002 -0.000001 -1.773998 -0.108001 -0.028998 0.000020 0.000013 -0.000009 -1.353994 -0.000001 0.000001 -0.000001 -0.007466 0.000000 -0.848997 -0.000001 0.000006 -0.000002 0.000016 -0.000008 -1.154001 0.044001 0.183999 0.000001 -0.000002 -0.000003 -1.589005 0.164000 -0.007994 0.000018 0.000015 0.000002 -1.180002 -0.000001 0.000004 -0.000000 -0.000013 -0.000003 -0.819005 0.000000 0.000005 0.000001 0.000008 -0.000006 -1.084001 0.411999 0.161000 -0.000001 -0.000004 -0.000000 -1.419997 0.374000 -0.008000 0.000017 0.000029 -0.000013 -0.945000 0.000000 0.000003 -0.000000 -0.000078 -0.000001 -0.597001 -0.000000 0.000002 -0.000001 -0.000014 0.000003 0.905000 -0.000000 4.162995 0.000038 2.481766 -0.001982 5.195003 0.000000 -0.000005 51.255683 78.617738 -40.911744 10.899994 -0.000001 0.000000 -14.096676 1.201009 -18.454635 8.200001 -0.000001 -0.000006 16.967474 -13.949283 -4.074022 0.632006 -0.821000 -0.158000 0.000005 0.000000 0.000022 1.262999 -0.000000 0.000001 0.133725 -0.086995 2.509565 0.876998 -0.000001 -0.000001 0.000002 0.000003 0.000002 1.105003 -0.678000 0.174003 -0.000003 0.000001 -0.000001 1.788995 -0.342999 -0.030998 0.000004 0.000003 0.000016 1.241001 0.000000 0.000002 0.000006 -0.000007 0.000001 0.703998 -0.000001 -0.000003 -0.000013 -0.000020 0.000001 1.159996 -0.260000 0.177002 -0.000002 0.000002 -0.000000 1.773997 -0.107999 -0.029007 -0.000001 -0.000013 -0.000004 1.353997 -0.000001 -0.000005 0.000008 0.004969 -0.000000 0.849001 -0.000000 -0.000004 0.000008 -0.000003 0.000011 1.154001 0.044000 0.183996 -0.000002 -0.000000 -0.000001 1.588999 0.163999 -0.007999 0.000001 -0.000002 -0.000001 1.179999 -0.000002 -0.000001 0.000000 0.000214 -0.000008 0.819003 -0.000000 -0.000002 0.000008 0.000041 0.000009 1.083997 0.411998 0.160998 -0.000003 0.000001 -0.000002 1.420000 0.374000 -0.007990 0.000001 -0.000029 -0.000003 0.945005 -0.000000 0.000010 0.000002 0.000006 0.000001 0.596996 -0.000001 0.000009 -0.000000 0.000009 -0.000004 
-0.000000 0.000002 32.900002 -1.032928 1.582272 -1.085018 -4.000000 0.000000 0.000005 -5.389326 -0.233938 -0.888321 -0.000000 -0.000001 -14.600005 7.966696 -0.084610 -0.117926 -0.000001 -0.000001 -14.600002 -1.470213 -1.125305 -1.801536 4.000000 0.000000 -0.000001 -8.186624 -2.470565 -2.300067 0.000000 -0.000001 -14.599998 14.105813 0.072636 0.123308 0.000000 -0.000001 -14.600000 -4.841608 1.203807 3.227406 -0.000000 0.000000 2.534004 0.240723 -0.856348 -1.687229 -0.000000 -0.000000 5.610992 1.114076 -0.115291 0.004383 -0.000000 -0.000000 3.981998 -0.188235 -1.220611 0.022104 0.000000 0.000000 5.972996 -0.398501 -0.000019 -0.000013 0.000000 0.000000 3.049995 -0.398494 -0.000019 -0.000012 0.000000 0.000001 3.049995 -5.076724 0.536071 1.693869 -0.905000 -0.000000 4.163003 0.000114 -3.696110 0.002948 -5.195001 0.000000 -0.000005 20.829772 -64.114064 12.989152 -10.899999 0.000001 0.000002 -10.231266 -1.589538 25.587072 -8.200002 -0.000002 -0.000003 17.672279 4.372628 1.849540 -0.631999 -0.821001 -0.158007 0.000005 0.000056 0.000016 -1.262993 -0.000001 0.000002 0.137517 0.089548 -2.511051 -0.877004 -0.000000 0.000004 0.000017 -0.000006 -0.000002 -1.104999 -0.678001 0.173994 0.000001 -0.000002 0.000001 -1.788998 -0.343000 -0.030999 0.000005 0.000031 -0.000004 -1.240996 -0.000000 0.000000 -0.000012 -0.000012 -0.000004 -0.704001 0.000000 -0.000001 0.000006 0.000003 -0.000001 -1.159999 -0.260001 0.176992 -0.000000 -0.000003 0.000003 -1.773996 -0.108000 -0.029001 0.000023 0.000025 0.000012 -1.354001 -0.000000 -0.000002 -0.000008 -0.007503 0.000000 -0.849002 -0.000000 -0.000000 0.000001 0.000003 -0.000002 -1.154002 0.044000 0.183992 0.000000 -0.000000 0.000000 -1.589001 0.164000 -0.007999 0.000003 0.000009 0.000001 -1.179999 -0.000001 -0.000001 0.000010 -0.000014 -0.000001 -0.819004 0.000001 0.000005 0.000011 0.000002 0.000001 -1.083998 0.411998 0.160994 0.000001 -0.000000 0.000001 -1.420006 0.374000 -0.007997 0.000008 0.000026 0.000007 -0.945001 -0.000000 0.000007 0.000003 -0.000034 -0.000005 -0.597005 -0.000001 0.000004 -0.000006 -0.000010 0.000001 0.905000 -0.000000 4.163000 0.000046 2.481456 -0.001977 5.195003 0.000000 0.000004 48.433063 80.671030 -34.842998 10.899998 -0.000001 -0.000002 -14.365582 1.678730 -27.397193 8.199997 0.000002 -0.000002 9.076433 -19.595152 -6.097755 0.632004 -0.820996 -0.158001 0.000026 -0.000011 0.000002 1.262996 -0.000001 -0.000002 0.133989 -0.086633 2.509558 0.877006 -0.000001 -0.000000 0.000007 0.000008 0.000000 1.105001 -0.677999 0.174004 -0.000001 -0.000003 -0.000001 1.788998 -0.343001 -0.030999 0.000015 0.000013 -0.000001 1.241001 -0.000000 0.000001 -0.000003 -0.000015 -0.000018 0.704000 -0.000000 -0.000003 -0.000012 -0.000022 0.000003 1.160000 -0.259999 0.176995 -0.000002 0.000000 -0.000002 1.774000 -0.107999 -0.029002 0.000007 -0.000002 -0.000013 1.353997 -0.000001 0.000002 0.000009 0.004978 0.000016 0.848997 -0.000001 -0.000004 0.000005 0.000029 0.000006 1.154003 0.044001 0.183998 -0.000002 0.000000 0.000001 1.589004 0.164001 -0.007997 -0.000001 -0.000000 0.000000 1.180000 0.000001 0.000001 0.000018 0.000217 -0.000017 0.818997 -0.000001 0.000004 0.000003 0.000050 0.000020 1.084000 0.412001 0.161001 -0.000002 -0.000004 -0.000001 1.420000 0.374000 -0.007997 0.000009 -0.000011 -0.000013 0.945009 0.000002 0.000003 0.000001 -0.000060 0.000004 0.596996 -0.000001 0.000002 0.000002 -0.000012 0.000003 
-0.000000 0.000002 32.900002 -1.038838 1.581505 -1.563515 -4.000000 0.000000 -0.000006 -6.660788 -0.092216 -1.494807 -0.000001 -0.000001 -14.599994 10.654772 -0.127940 -0.164530 0.000000 -0.000001 -14.600000 -2.844368 -1.128378 -0.670760 4.000000 0.000000 0.000002 -8.942634 -2.283317 -3.123546 -0.000000 -0.000001 -14.600001 15.969172 0.082147 0.160985 0.000000 -0.000001 -14.600002 -5.985669 1.173339 4.514481 -0.000000 0.000000 2.533997 -0.159780 -0.490015 -2.521533 -0.000000 -0.000000 5.611000 1.662809 -0.172039 0.007379 -0.000000 0.000000 3.982002 -0.286673 -1.879760 0.032336 -0.000000 0.000000 5.972996 -0.397627 -0.000018 -0.000012 -0.000000 0.000000 3.049992 -0.397627 -0.000020 -0.000011 -0.000000 0.000000 3.050010 -5.090198 0.799943 2.528281 -0.905000 0.000000 4.162996 0.000104 -3.696113 0.002949 -5.194999 0.000000 0.000001 16.323157 -58.582778 8.113435 -10.899995 0.000002 0.000000 -8.545969 -1.962217 33.952741 -8.200000 0.000003 -0.000003 17.437123 2.199381 1.351909 -0.632003 -0.821001 -0.158007 0.000012 0.000050 0.000006 -1.262997 0.000000 -0.000000 0.137526 0.089559 -2.511061 -0.876998 -0.000001 0.000000 -0.000000 -0.000006 0.000024 -1.105003 -0.678000 0.174003 -0.000000 -0.000002 -0.000002 -1.789002 -0.342998 -0.030997 0.000014 0.000027 -0.000008 -1.241000 0.000001 -0.000006 -0.000028 -0.000034 -0.000009 -0.703997 -0.000002 -0.000002 0.000006 0.000020 -0.000011 -1.160000 -0.260001 0.176994 -0.000001 -0.000005 0.000000 -1.774000 -0.108000 -0.029000 0.000007 0.000027 -0.000006 -1.353996 -0.000001 -0.000007 -0.000001 -0.007498 0.000003 -0.849001 0.000002 -0.000005 0.000007 -0.000022 -0.000007 -1.154004 0.044000 0.183999 0.000002 0.000001 -0.000002 -1.589001 0.164001 -0.008003 0.000018 0.000012 0.000007 -1.179997 -0.000001 -0.000002 0.000007 0.000021 -0.000007 -0.819003 -0.000001 -0.000001 0.000002 -0.000001 -0.000001 -1.084000 0.411999 0.161000 0.000001 0.000002 -0.000000 -1.419999 0.373999 -0.007992 0.000001 0.000019 -0.000001 -0.945003 0.000002 0.000001 -0.000007 0.000045 -0.000018 -0.597002 0.000001 -0.000001 0.000004 0.000013 -0.000001 0.905000 -0.000000 4.162997 0.000033 2.481175 -0.001976 5.195001 0.000000 0.000002 43.863789 82.733781 -27.001329 10.899999 -0.000000 0.000001 -14.556709 2.048848 -36.317554 8.200001 -0.000001 0.000004 0.565854 -25.083270 -9.088671 0.632001 -0.821002 -0.158002 0.000010 0.000003 0.000036 1.262998 -0.000001 0.000002 0.134260 -0.086285 2.509555 0.877002 0.000001 -0.000003 0.000003 0.000026 -0.000010 1.105000 -0.678000 0.174005 0.000002 -0.000003 -0.000001 1.788996 -0.343003 -0.030997 0.000001 0.000011 0.000019 1.240995 -0.000000 0.000001 0.000006 0.000002 -0.000002 0.703999 0.000001 -0.000002 -0.000009 -0.000039 -0.000004 1.159994 -0.260001 0.176992 0.000002 -0.000002 -0.000001 1.773998 -0.107997 -0.029004 0.000005 -0.000016 0.000012 1.353999 -0.000001 -0.000001 0.000007 0.004998 0.000010 0.849004 -0.000003 0.000005 0.000024 -0.000025 0.000000 1.153997 0.044000 0.183995 0.000000 -0.000000 -0.000000 1.589004 0.163999 -0.007996 -0.000000 -0.000001 0.000001 1.180002 0.000000 0.000005 0.000007 0.000217 0.000005 0.819002 0.000002 0.000005 0.000009 0.000081 0.000009 1.083996 0.411999 0.161001 0.000002 -0.000002 -0.000002 1.419999 0.374000 -0.007996 -0.000000 -0.000032 0.000012 0.944999 0.000000 0.000007 -0.000001 -0.000049 -0.000001 0.596994 -0.000000 0.000004 0.000007 -0.000010 -0.000003 
